<mxfile host="app.diagrams.net" agent="Mozilla/5.0 (Windows NT 10.0; Win64; x64) AppleWebKit/537.36 (KHTML, like Gecko) Chrome/127.0.0.0 Safari/537.36" version="24.7.10">
  <diagram name="ページ1" id="_UBgl7khf2Gl9dSoBOvO">
    <mxGraphModel dx="1018" dy="588" grid="1" gridSize="10" guides="1" tooltips="1" connect="1" arrows="1" fold="1" page="1" pageScale="1" pageWidth="1169" pageHeight="827" background="#000000" math="0" shadow="0">
      <root>
        <mxCell id="0" />
        <mxCell id="1" parent="0" />
        <mxCell id="hM_uBPPMbF6WadlX3Jyn-1" value="&lt;font color=&quot;#ffffff&quot;&gt;AWS Cloud&lt;/font&gt;" style="points=[[0,0],[0.25,0],[0.5,0],[0.75,0],[1,0],[1,0.25],[1,0.5],[1,0.75],[1,1],[0.75,1],[0.5,1],[0.25,1],[0,1],[0,0.75],[0,0.5],[0,0.25]];outlineConnect=0;gradientColor=none;html=1;whiteSpace=wrap;fontSize=12;fontStyle=0;container=1;pointerEvents=0;collapsible=0;recursiveResize=0;shape=mxgraph.aws4.group;grIcon=mxgraph.aws4.group_aws_cloud_alt;strokeColor=#FFFFFF;fillColor=none;verticalAlign=top;align=left;spacingLeft=30;fontColor=#232F3E;dashed=0;" vertex="1" parent="1">
          <mxGeometry x="180" y="59" width="930" height="710" as="geometry" />
        </mxCell>
        <mxCell id="hM_uBPPMbF6WadlX3Jyn-11" value="&lt;font color=&quot;#ffffff&quot; style=&quot;font-size: 10px;&quot;&gt;CloudFront&lt;/font&gt;" style="sketch=0;points=[[0,0,0],[0.25,0,0],[0.5,0,0],[0.75,0,0],[1,0,0],[0,1,0],[0.25,1,0],[0.5,1,0],[0.75,1,0],[1,1,0],[0,0.25,0],[0,0.5,0],[0,0.75,0],[1,0.25,0],[1,0.5,0],[1,0.75,0]];outlineConnect=0;fontColor=#232F3E;fillColor=#8C4FFF;strokeColor=#ffffff;dashed=0;verticalLabelPosition=bottom;verticalAlign=top;align=center;html=1;fontSize=12;fontStyle=0;aspect=fixed;shape=mxgraph.aws4.resourceIcon;resIcon=mxgraph.aws4.cloudfront;" vertex="1" parent="hM_uBPPMbF6WadlX3Jyn-1">
          <mxGeometry x="120" y="270" width="40" height="40" as="geometry" />
        </mxCell>
        <mxCell id="hM_uBPPMbF6WadlX3Jyn-26" value="&lt;font color=&quot;#ffffff&quot;&gt;VPC&lt;/font&gt;" style="points=[[0,0],[0.25,0],[0.5,0],[0.75,0],[1,0],[1,0.25],[1,0.5],[1,0.75],[1,1],[0.75,1],[0.5,1],[0.25,1],[0,1],[0,0.75],[0,0.5],[0,0.25]];outlineConnect=0;gradientColor=none;html=1;whiteSpace=wrap;fontSize=12;fontStyle=0;container=1;pointerEvents=0;collapsible=0;recursiveResize=0;shape=mxgraph.aws4.group;grIcon=mxgraph.aws4.group_vpc2;strokeColor=#8C4FFF;fillColor=none;verticalAlign=top;align=left;spacingLeft=30;fontColor=#AAB7B8;dashed=0;" vertex="1" parent="hM_uBPPMbF6WadlX3Jyn-1">
          <mxGeometry x="270" y="71" width="460" height="620" as="geometry" />
        </mxCell>
        <mxCell id="hM_uBPPMbF6WadlX3Jyn-28" value="&lt;font color=&quot;#ffffff&quot;&gt;Private subnet&lt;/font&gt;" style="points=[[0,0],[0.25,0],[0.5,0],[0.75,0],[1,0],[1,0.25],[1,0.5],[1,0.75],[1,1],[0.75,1],[0.5,1],[0.25,1],[0,1],[0,0.75],[0,0.5],[0,0.25]];outlineConnect=0;gradientColor=none;html=1;whiteSpace=wrap;fontSize=12;fontStyle=0;container=1;pointerEvents=0;collapsible=0;recursiveResize=0;shape=mxgraph.aws4.group;grIcon=mxgraph.aws4.group_security_group;grStroke=0;strokeColor=#FFFFFF;fillColor=#333333;verticalAlign=top;align=left;spacingLeft=30;fontColor=#147EBA;dashed=0;" vertex="1" parent="hM_uBPPMbF6WadlX3Jyn-26">
          <mxGeometry x="50" y="410" width="380" height="200" as="geometry" />
        </mxCell>
        <mxCell id="hM_uBPPMbF6WadlX3Jyn-36" value="" style="group" vertex="1" connectable="0" parent="hM_uBPPMbF6WadlX3Jyn-28">
          <mxGeometry x="105" y="50" width="151" height="105" as="geometry" />
        </mxCell>
        <mxCell id="hM_uBPPMbF6WadlX3Jyn-17" value="&lt;font color=&quot;#ffffff&quot; style=&quot;font-size: 10px;&quot;&gt;Lambda&lt;/font&gt;" style="sketch=0;points=[[0,0,0],[0.25,0,0],[0.5,0,0],[0.75,0,0],[1,0,0],[0,1,0],[0.25,1,0],[0.5,1,0],[0.75,1,0],[1,1,0],[0,0.25,0],[0,0.5,0],[0,0.75,0],[1,0.25,0],[1,0.5,0],[1,0.75,0]];outlineConnect=0;fontColor=#232F3E;fillColor=#ED7100;strokeColor=#ffffff;dashed=0;verticalLabelPosition=bottom;verticalAlign=top;align=center;html=1;fontSize=12;fontStyle=0;aspect=fixed;shape=mxgraph.aws4.resourceIcon;resIcon=mxgraph.aws4.lambda;" vertex="1" parent="hM_uBPPMbF6WadlX3Jyn-36">
          <mxGeometry width="40" height="40" as="geometry" />
        </mxCell>
        <mxCell id="hM_uBPPMbF6WadlX3Jyn-5" value="&lt;font color=&quot;#ffffff&quot; style=&quot;font-size: 10px;&quot;&gt;transcribe&lt;/font&gt;" style="sketch=0;points=[[0,0,0],[0.25,0,0],[0.5,0,0],[0.75,0,0],[1,0,0],[0,1,0],[0.25,1,0],[0.5,1,0],[0.75,1,0],[1,1,0],[0,0.25,0],[0,0.5,0],[0,0.75,0],[1,0.25,0],[1,0.5,0],[1,0.75,0]];outlineConnect=0;fontColor=#232F3E;fillColor=#01A88D;strokeColor=#ffffff;dashed=0;verticalLabelPosition=bottom;verticalAlign=top;align=center;html=1;fontSize=12;fontStyle=0;aspect=fixed;shape=mxgraph.aws4.resourceIcon;resIcon=mxgraph.aws4.transcribe;" vertex="1" parent="hM_uBPPMbF6WadlX3Jyn-36">
          <mxGeometry x="111" width="40" height="40" as="geometry" />
        </mxCell>
        <mxCell id="hM_uBPPMbF6WadlX3Jyn-10" value="&lt;font color=&quot;#ffffff&quot; style=&quot;font-size: 10px;&quot;&gt;S3&lt;/font&gt;" style="sketch=0;points=[[0,0,0],[0.25,0,0],[0.5,0,0],[0.75,0,0],[1,0,0],[0,1,0],[0.25,1,0],[0.5,1,0],[0.75,1,0],[1,1,0],[0,0.25,0],[0,0.5,0],[0,0.75,0],[1,0.25,0],[1,0.5,0],[1,0.75,0]];outlineConnect=0;fontColor=#232F3E;fillColor=#7AA116;strokeColor=#ffffff;dashed=0;verticalLabelPosition=bottom;verticalAlign=top;align=center;html=1;fontSize=12;fontStyle=0;aspect=fixed;shape=mxgraph.aws4.resourceIcon;resIcon=mxgraph.aws4.s3;" vertex="1" parent="hM_uBPPMbF6WadlX3Jyn-36">
          <mxGeometry x="111" y="80" width="40" height="40" as="geometry" />
        </mxCell>
        <mxCell id="hM_uBPPMbF6WadlX3Jyn-55" value="" style="edgeStyle=orthogonalEdgeStyle;html=1;endArrow=block;elbow=vertical;startArrow=none;endFill=1;strokeColor=#FFFFFF;rounded=0;exitX=0.5;exitY=1;exitDx=0;exitDy=0;exitPerimeter=0;" edge="1" parent="hM_uBPPMbF6WadlX3Jyn-36" source="hM_uBPPMbF6WadlX3Jyn-17" target="hM_uBPPMbF6WadlX3Jyn-60">
          <mxGeometry width="100" relative="1" as="geometry">
            <mxPoint x="321" y="-20" as="sourcePoint" />
            <mxPoint x="20" y="60" as="targetPoint" />
          </mxGeometry>
        </mxCell>
        <mxCell id="hM_uBPPMbF6WadlX3Jyn-54" value="" style="edgeStyle=orthogonalEdgeStyle;html=1;endArrow=block;elbow=vertical;startArrow=none;endFill=1;strokeColor=#FFFFFF;rounded=0;" edge="1" parent="hM_uBPPMbF6WadlX3Jyn-36" source="hM_uBPPMbF6WadlX3Jyn-5" target="hM_uBPPMbF6WadlX3Jyn-10">
          <mxGeometry width="100" relative="1" as="geometry">
            <mxPoint x="321" y="50" as="sourcePoint" />
            <mxPoint x="321" y="80" as="targetPoint" />
          </mxGeometry>
        </mxCell>
        <mxCell id="hM_uBPPMbF6WadlX3Jyn-58" value="" style="edgeStyle=orthogonalEdgeStyle;html=1;endArrow=block;elbow=vertical;startArrow=none;endFill=1;strokeColor=#FFFFFF;rounded=0;entryX=0;entryY=0.5;entryDx=0;entryDy=0;entryPerimeter=0;" edge="1" parent="hM_uBPPMbF6WadlX3Jyn-36" source="hM_uBPPMbF6WadlX3Jyn-17" target="hM_uBPPMbF6WadlX3Jyn-10">
          <mxGeometry width="100" relative="1" as="geometry">
            <mxPoint x="331" y="-10" as="sourcePoint" />
            <mxPoint x="331" y="20" as="targetPoint" />
          </mxGeometry>
        </mxCell>
        <mxCell id="hM_uBPPMbF6WadlX3Jyn-60" value="&lt;font color=&quot;#ffffff&quot; style=&quot;font-size: 10px;&quot;&gt;RDS&lt;/font&gt;" style="sketch=0;points=[[0,0,0],[0.25,0,0],[0.5,0,0],[0.75,0,0],[1,0,0],[0,1,0],[0.25,1,0],[0.5,1,0],[0.75,1,0],[1,1,0],[0,0.25,0],[0,0.5,0],[0,0.75,0],[1,0.25,0],[1,0.5,0],[1,0.75,0]];outlineConnect=0;fontColor=#232F3E;fillColor=#C925D1;strokeColor=#ffffff;dashed=0;verticalLabelPosition=bottom;verticalAlign=top;align=center;html=1;fontSize=12;fontStyle=0;aspect=fixed;shape=mxgraph.aws4.resourceIcon;resIcon=mxgraph.aws4.rds;" vertex="1" parent="hM_uBPPMbF6WadlX3Jyn-36">
          <mxGeometry y="80" width="40" height="40" as="geometry" />
        </mxCell>
        <mxCell id="hM_uBPPMbF6WadlX3Jyn-59" value="&lt;font color=&quot;#ffffff&quot; style=&quot;font-size: 10px;&quot;&gt;EventBridge&lt;/font&gt;" style="sketch=0;points=[[0,0,0],[0.25,0,0],[0.5,0,0],[0.75,0,0],[1,0,0],[0,1,0],[0.25,1,0],[0.5,1,0],[0.75,1,0],[1,1,0],[0,0.25,0],[0,0.5,0],[0,0.75,0],[1,0.25,0],[1,0.5,0],[1,0.75,0]];outlineConnect=0;fontColor=#232F3E;fillColor=#E7157B;strokeColor=#ffffff;dashed=0;verticalLabelPosition=bottom;verticalAlign=top;align=center;html=1;fontSize=12;fontStyle=0;aspect=fixed;shape=mxgraph.aws4.resourceIcon;resIcon=mxgraph.aws4.eventbridge;" vertex="1" parent="hM_uBPPMbF6WadlX3Jyn-28">
          <mxGeometry x="30" y="50" width="40" height="40" as="geometry" />
        </mxCell>
        <mxCell id="hM_uBPPMbF6WadlX3Jyn-56" value="" style="edgeStyle=orthogonalEdgeStyle;html=1;endArrow=block;elbow=vertical;startArrow=none;endFill=1;strokeColor=#545B64;rounded=0;" edge="1" parent="hM_uBPPMbF6WadlX3Jyn-28" source="hM_uBPPMbF6WadlX3Jyn-59" target="hM_uBPPMbF6WadlX3Jyn-17">
          <mxGeometry width="100" relative="1" as="geometry">
            <mxPoint x="436" y="-90" as="sourcePoint" />
            <mxPoint x="436" y="-60" as="targetPoint" />
          </mxGeometry>
        </mxCell>
        <mxCell id="hM_uBPPMbF6WadlX3Jyn-27" value="Public subnet" style="points=[[0,0],[0.25,0],[0.5,0],[0.75,0],[1,0],[1,0.25],[1,0.5],[1,0.75],[1,1],[0.75,1],[0.5,1],[0.25,1],[0,1],[0,0.75],[0,0.5],[0,0.25]];outlineConnect=0;gradientColor=none;html=1;whiteSpace=wrap;fontSize=12;fontStyle=0;container=1;pointerEvents=0;collapsible=0;recursiveResize=0;shape=mxgraph.aws4.group;grIcon=mxgraph.aws4.group_security_group;grStroke=0;strokeColor=#7AA116;fillColor=#333333;verticalAlign=top;align=left;spacingLeft=30;fontColor=#248814;dashed=0;" vertex="1" parent="hM_uBPPMbF6WadlX3Jyn-26">
          <mxGeometry x="110" y="50" width="240" height="350" as="geometry" />
        </mxCell>
        <mxCell id="hM_uBPPMbF6WadlX3Jyn-40" value="&lt;font color=&quot;#ffffff&quot;&gt;frontend&lt;/font&gt;" style="fillColor=none;strokeColor=#FFFFFF;dashed=1;verticalAlign=top;fontStyle=0;fontColor=#5A6C86;whiteSpace=wrap;html=1;" vertex="1" parent="hM_uBPPMbF6WadlX3Jyn-27">
          <mxGeometry x="30" y="30" width="70" height="250" as="geometry" />
        </mxCell>
        <mxCell id="hM_uBPPMbF6WadlX3Jyn-42" value="&lt;font color=&quot;#ffffff&quot;&gt;backend&lt;/font&gt;" style="fillColor=none;strokeColor=#FFFFFF;dashed=1;verticalAlign=top;fontStyle=0;fontColor=#5A6C86;whiteSpace=wrap;html=1;" vertex="1" parent="hM_uBPPMbF6WadlX3Jyn-27">
          <mxGeometry x="140" y="30" width="70" height="250" as="geometry" />
        </mxCell>
        <mxCell id="hM_uBPPMbF6WadlX3Jyn-33" value="" style="group" vertex="1" connectable="0" parent="hM_uBPPMbF6WadlX3Jyn-27">
          <mxGeometry x="45" y="60" width="150" height="210" as="geometry" />
        </mxCell>
        <mxCell id="hM_uBPPMbF6WadlX3Jyn-12" value="&lt;font color=&quot;#ffffff&quot; style=&quot;font-size: 10px;&quot;&gt;ALB&lt;/font&gt;" style="sketch=0;outlineConnect=0;fontColor=#232F3E;gradientColor=none;fillColor=#8C4FFF;strokeColor=none;dashed=0;verticalLabelPosition=bottom;verticalAlign=top;align=center;html=1;fontSize=12;fontStyle=0;aspect=fixed;pointerEvents=1;shape=mxgraph.aws4.application_load_balancer;" vertex="1" parent="hM_uBPPMbF6WadlX3Jyn-33">
          <mxGeometry width="40" height="40" as="geometry" />
        </mxCell>
        <mxCell id="hM_uBPPMbF6WadlX3Jyn-14" value="&lt;font color=&quot;#ffffff&quot; style=&quot;font-size: 10px;&quot;&gt;Fargate&lt;/font&gt;" style="sketch=0;points=[[0,0,0],[0.25,0,0],[0.5,0,0],[0.75,0,0],[1,0,0],[0,1,0],[0.25,1,0],[0.5,1,0],[0.75,1,0],[1,1,0],[0,0.25,0],[0,0.5,0],[0,0.75,0],[1,0.25,0],[1,0.5,0],[1,0.75,0]];outlineConnect=0;fontColor=#232F3E;fillColor=#ED7100;strokeColor=#ffffff;dashed=0;verticalLabelPosition=bottom;verticalAlign=top;align=center;html=1;fontSize=12;fontStyle=0;aspect=fixed;shape=mxgraph.aws4.resourceIcon;resIcon=mxgraph.aws4.fargate;" vertex="1" parent="hM_uBPPMbF6WadlX3Jyn-33">
          <mxGeometry y="150" width="40" height="40" as="geometry" />
        </mxCell>
        <mxCell id="hM_uBPPMbF6WadlX3Jyn-21" value="&lt;font color=&quot;#ffffff&quot; style=&quot;font-size: 10px;&quot;&gt;ALB&lt;/font&gt;" style="sketch=0;outlineConnect=0;fontColor=#232F3E;gradientColor=none;fillColor=#8C4FFF;strokeColor=none;dashed=0;verticalLabelPosition=bottom;verticalAlign=top;align=center;html=1;fontSize=12;fontStyle=0;aspect=fixed;pointerEvents=1;shape=mxgraph.aws4.application_load_balancer;" vertex="1" parent="hM_uBPPMbF6WadlX3Jyn-33">
          <mxGeometry x="110" width="40" height="40" as="geometry" />
        </mxCell>
        <mxCell id="hM_uBPPMbF6WadlX3Jyn-24" value="&lt;font color=&quot;#ffffff&quot; style=&quot;font-size: 10px;&quot;&gt;Fargate&lt;/font&gt;" style="sketch=0;points=[[0,0,0],[0.25,0,0],[0.5,0,0],[0.75,0,0],[1,0,0],[0,1,0],[0.25,1,0],[0.5,1,0],[0.75,1,0],[1,1,0],[0,0.25,0],[0,0.5,0],[0,0.75,0],[1,0.25,0],[1,0.5,0],[1,0.75,0]];outlineConnect=0;fontColor=#232F3E;fillColor=#ED7100;strokeColor=#ffffff;dashed=0;verticalLabelPosition=bottom;verticalAlign=top;align=center;html=1;fontSize=12;fontStyle=0;aspect=fixed;shape=mxgraph.aws4.resourceIcon;resIcon=mxgraph.aws4.fargate;" vertex="1" parent="hM_uBPPMbF6WadlX3Jyn-33">
          <mxGeometry x="110" y="150" width="40" height="40" as="geometry" />
        </mxCell>
        <mxCell id="hM_uBPPMbF6WadlX3Jyn-29" value="&lt;font color=&quot;#ffffff&quot; style=&quot;font-size: 10px;&quot;&gt;NAT Gateway&lt;/font&gt;" style="sketch=0;outlineConnect=0;fontColor=#232F3E;gradientColor=none;fillColor=#8C4FFF;strokeColor=none;dashed=0;verticalLabelPosition=bottom;verticalAlign=top;align=center;html=1;fontSize=12;fontStyle=0;aspect=fixed;pointerEvents=1;shape=mxgraph.aws4.nat_gateway;" vertex="1" parent="hM_uBPPMbF6WadlX3Jyn-27">
          <mxGeometry x="100" y="280" width="40" height="40" as="geometry" />
        </mxCell>
        <mxCell id="hM_uBPPMbF6WadlX3Jyn-68" value="" style="edgeStyle=orthogonalEdgeStyle;rounded=0;orthogonalLoop=1;jettySize=auto;html=1;strokeColor=#FFFFFF;" edge="1" parent="hM_uBPPMbF6WadlX3Jyn-27" source="hM_uBPPMbF6WadlX3Jyn-13" target="hM_uBPPMbF6WadlX3Jyn-29">
          <mxGeometry relative="1" as="geometry" />
        </mxCell>
        <mxCell id="hM_uBPPMbF6WadlX3Jyn-13" value="&lt;font color=&quot;#ffffff&quot; style=&quot;font-size: 10px;&quot;&gt;ECS&lt;/font&gt;" style="sketch=0;points=[[0,0,0],[0.25,0,0],[0.5,0,0],[0.75,0,0],[1,0,0],[0,1,0],[0.25,1,0],[0.5,1,0],[0.75,1,0],[1,1,0],[0,0.25,0],[0,0.5,0],[0,0.75,0],[1,0.25,0],[1,0.5,0],[1,0.75,0]];outlineConnect=0;fontColor=#232F3E;fillColor=#ED7100;strokeColor=#ffffff;dashed=0;verticalLabelPosition=bottom;verticalAlign=top;align=center;html=1;fontSize=12;fontStyle=0;aspect=fixed;shape=mxgraph.aws4.resourceIcon;resIcon=mxgraph.aws4.ecs;" vertex="1" parent="hM_uBPPMbF6WadlX3Jyn-27">
          <mxGeometry x="45" y="135" width="40" height="40" as="geometry" />
        </mxCell>
        <mxCell id="hM_uBPPMbF6WadlX3Jyn-46" value="" style="edgeStyle=orthogonalEdgeStyle;html=1;endArrow=block;elbow=vertical;startArrow=none;endFill=1;strokeColor=#FFFFFF;rounded=0;" edge="1" parent="hM_uBPPMbF6WadlX3Jyn-27" source="hM_uBPPMbF6WadlX3Jyn-12" target="hM_uBPPMbF6WadlX3Jyn-13">
          <mxGeometry width="100" relative="1" as="geometry">
            <mxPoint x="130" y="-20" as="sourcePoint" />
            <mxPoint x="130" y="10" as="targetPoint" />
          </mxGeometry>
        </mxCell>
        <mxCell id="hM_uBPPMbF6WadlX3Jyn-48" value="" style="edgeStyle=orthogonalEdgeStyle;html=1;endArrow=block;elbow=vertical;startArrow=none;endFill=1;strokeColor=#FFFFFF;rounded=0;" edge="1" parent="hM_uBPPMbF6WadlX3Jyn-27" source="hM_uBPPMbF6WadlX3Jyn-13" target="hM_uBPPMbF6WadlX3Jyn-14">
          <mxGeometry width="100" relative="1" as="geometry">
            <mxPoint x="306" y="150" as="sourcePoint" />
            <mxPoint x="306" y="180" as="targetPoint" />
          </mxGeometry>
        </mxCell>
        <mxCell id="hM_uBPPMbF6WadlX3Jyn-23" value="&lt;font color=&quot;#ffffff&quot; style=&quot;font-size: 10px;&quot;&gt;ECS&lt;/font&gt;" style="sketch=0;points=[[0,0,0],[0.25,0,0],[0.5,0,0],[0.75,0,0],[1,0,0],[0,1,0],[0.25,1,0],[0.5,1,0],[0.75,1,0],[1,1,0],[0,0.25,0],[0,0.5,0],[0,0.75,0],[1,0.25,0],[1,0.5,0],[1,0.75,0]];outlineConnect=0;fontColor=#232F3E;fillColor=#ED7100;strokeColor=#ffffff;dashed=0;verticalLabelPosition=bottom;verticalAlign=top;align=center;html=1;fontSize=12;fontStyle=0;aspect=fixed;shape=mxgraph.aws4.resourceIcon;resIcon=mxgraph.aws4.ecs;" vertex="1" parent="hM_uBPPMbF6WadlX3Jyn-27">
          <mxGeometry x="155" y="135" width="40" height="40" as="geometry" />
        </mxCell>
        <mxCell id="hM_uBPPMbF6WadlX3Jyn-49" value="" style="edgeStyle=orthogonalEdgeStyle;html=1;endArrow=block;elbow=vertical;startArrow=none;endFill=1;strokeColor=#FFFFFF;rounded=0;" edge="1" parent="hM_uBPPMbF6WadlX3Jyn-27" source="hM_uBPPMbF6WadlX3Jyn-21" target="hM_uBPPMbF6WadlX3Jyn-23">
          <mxGeometry width="100" relative="1" as="geometry">
            <mxPoint x="196" y="80" as="sourcePoint" />
            <mxPoint x="392" y="320" as="targetPoint" />
          </mxGeometry>
        </mxCell>
        <mxCell id="hM_uBPPMbF6WadlX3Jyn-50" value="" style="edgeStyle=orthogonalEdgeStyle;html=1;endArrow=block;elbow=vertical;startArrow=none;endFill=1;strokeColor=#FFFFFF;rounded=0;" edge="1" parent="hM_uBPPMbF6WadlX3Jyn-27" source="hM_uBPPMbF6WadlX3Jyn-23" target="hM_uBPPMbF6WadlX3Jyn-24">
          <mxGeometry width="100" relative="1" as="geometry">
            <mxPoint x="326" y="170" as="sourcePoint" />
            <mxPoint x="326" y="200" as="targetPoint" />
          </mxGeometry>
        </mxCell>
        <mxCell id="hM_uBPPMbF6WadlX3Jyn-30" value="&lt;font color=&quot;#ffffff&quot; style=&quot;font-size: 10px;&quot;&gt;Internet Gateway&lt;/font&gt;" style="sketch=0;outlineConnect=0;fontColor=#232F3E;gradientColor=none;fillColor=#8C4FFF;strokeColor=none;dashed=0;verticalLabelPosition=bottom;verticalAlign=top;align=center;html=1;fontSize=12;fontStyle=0;aspect=fixed;pointerEvents=1;shape=mxgraph.aws4.internet_gateway;" vertex="1" parent="hM_uBPPMbF6WadlX3Jyn-26">
          <mxGeometry x="210" y="-20" width="40" height="40" as="geometry" />
        </mxCell>
        <mxCell id="hM_uBPPMbF6WadlX3Jyn-43" value="" style="edgeStyle=orthogonalEdgeStyle;html=1;endArrow=block;elbow=vertical;startArrow=none;endFill=1;strokeColor=#545B64;rounded=0;entryX=0.5;entryY=0;entryDx=0;entryDy=0;" edge="1" parent="hM_uBPPMbF6WadlX3Jyn-26" source="hM_uBPPMbF6WadlX3Jyn-30" target="hM_uBPPMbF6WadlX3Jyn-27">
          <mxGeometry width="100" relative="1" as="geometry">
            <mxPoint x="386" y="80" as="sourcePoint" />
            <mxPoint x="230" y="40" as="targetPoint" />
          </mxGeometry>
        </mxCell>
        <mxCell id="hM_uBPPMbF6WadlX3Jyn-51" value="" style="edgeStyle=orthogonalEdgeStyle;html=1;endArrow=block;elbow=vertical;startArrow=none;endFill=1;strokeColor=#FFFFFF;rounded=0;" edge="1" parent="hM_uBPPMbF6WadlX3Jyn-26" source="hM_uBPPMbF6WadlX3Jyn-29" target="hM_uBPPMbF6WadlX3Jyn-30">
          <mxGeometry width="100" relative="1" as="geometry">
            <mxPoint x="446" y="230" as="sourcePoint" />
            <mxPoint x="446" y="260" as="targetPoint" />
            <Array as="points">
              <mxPoint x="396" y="350" />
              <mxPoint x="396" y="1" />
            </Array>
          </mxGeometry>
        </mxCell>
        <mxCell id="hM_uBPPMbF6WadlX3Jyn-52" value="" style="edgeStyle=orthogonalEdgeStyle;html=1;endArrow=block;elbow=vertical;startArrow=none;endFill=1;strokeColor=#FFFFFF;rounded=0;" edge="1" parent="hM_uBPPMbF6WadlX3Jyn-26" source="hM_uBPPMbF6WadlX3Jyn-17" target="hM_uBPPMbF6WadlX3Jyn-29">
          <mxGeometry width="100" relative="1" as="geometry">
            <mxPoint x="456" y="240" as="sourcePoint" />
            <mxPoint x="456" y="270" as="targetPoint" />
            <Array as="points">
              <mxPoint x="175" y="420" />
              <mxPoint x="230" y="420" />
            </Array>
          </mxGeometry>
        </mxCell>
        <mxCell id="hM_uBPPMbF6WadlX3Jyn-64" value="" style="edgeStyle=orthogonalEdgeStyle;html=1;endArrow=block;elbow=vertical;startArrow=none;endFill=1;strokeColor=#FFFFFF;rounded=0;exitX=1;exitY=0.5;exitDx=0;exitDy=0;exitPerimeter=0;" edge="1" parent="hM_uBPPMbF6WadlX3Jyn-26" source="hM_uBPPMbF6WadlX3Jyn-24" target="hM_uBPPMbF6WadlX3Jyn-10">
          <mxGeometry width="100" relative="1" as="geometry">
            <mxPoint x="336.0000000000002" y="290" as="sourcePoint" />
            <mxPoint x="337" y="580" as="targetPoint" />
            <Array as="points">
              <mxPoint x="426" y="280" />
              <mxPoint x="426" y="570" />
            </Array>
          </mxGeometry>
        </mxCell>
        <mxCell id="hM_uBPPMbF6WadlX3Jyn-72" value="" style="edgeStyle=orthogonalEdgeStyle;html=1;endArrow=block;elbow=vertical;startArrow=none;endFill=1;strokeColor=#FFFFFF;rounded=0;" edge="1" parent="hM_uBPPMbF6WadlX3Jyn-26" source="hM_uBPPMbF6WadlX3Jyn-24" target="hM_uBPPMbF6WadlX3Jyn-5">
          <mxGeometry width="100" relative="1" as="geometry">
            <mxPoint x="380" y="462.5" as="sourcePoint" />
            <mxPoint x="380" y="497.5" as="targetPoint" />
            <Array as="points">
              <mxPoint x="286" y="350" />
              <mxPoint x="286" y="350" />
            </Array>
          </mxGeometry>
        </mxCell>
        <mxCell id="hM_uBPPMbF6WadlX3Jyn-39" value="" style="edgeStyle=orthogonalEdgeStyle;html=1;endArrow=block;elbow=vertical;startArrow=none;endFill=1;strokeColor=#FFFFFF;rounded=0;exitX=0.5;exitY=0;exitDx=0;exitDy=0;exitPerimeter=0;" edge="1" parent="hM_uBPPMbF6WadlX3Jyn-1" source="hM_uBPPMbF6WadlX3Jyn-11" target="hM_uBPPMbF6WadlX3Jyn-30">
          <mxGeometry width="100" relative="1" as="geometry">
            <mxPoint x="-224.27999999999975" y="50.43999999999983" as="sourcePoint" />
            <mxPoint x="90" y="-140.0004554771125" as="targetPoint" />
            <Array as="points">
              <mxPoint x="140" y="30" />
              <mxPoint x="500" y="30" />
            </Array>
          </mxGeometry>
        </mxCell>
        <mxCell id="hM_uBPPMbF6WadlX3Jyn-37" value="" style="group;fontColor=#FFFFFF;" vertex="1" connectable="0" parent="1">
          <mxGeometry x="50" y="329" width="80" height="40" as="geometry" />
        </mxCell>
        <mxCell id="hM_uBPPMbF6WadlX3Jyn-19" value="&lt;font color=&quot;#ffffff&quot; style=&quot;font-size: 10px;&quot;&gt;User&lt;/font&gt;" style="sketch=0;outlineConnect=0;fontColor=#232F3E;gradientColor=none;fillColor=#FFFFFF;strokeColor=none;dashed=0;verticalLabelPosition=bottom;verticalAlign=top;align=center;html=1;fontSize=12;fontStyle=0;aspect=fixed;pointerEvents=1;shape=mxgraph.aws4.user;" vertex="1" parent="hM_uBPPMbF6WadlX3Jyn-37">
          <mxGeometry width="40" height="40" as="geometry" />
        </mxCell>
        <mxCell id="hM_uBPPMbF6WadlX3Jyn-20" value="" style="sketch=0;outlineConnect=0;fontColor=#232F3E;gradientColor=none;fillColor=#FFFFFF;strokeColor=none;dashed=0;verticalLabelPosition=bottom;verticalAlign=top;align=center;html=1;fontSize=12;fontStyle=0;aspect=fixed;pointerEvents=1;shape=mxgraph.aws4.client;" vertex="1" parent="hM_uBPPMbF6WadlX3Jyn-37">
          <mxGeometry x="40" y="1.0300000000000011" width="40" height="38.97" as="geometry" />
        </mxCell>
        <mxCell id="hM_uBPPMbF6WadlX3Jyn-53" value="" style="edgeStyle=orthogonalEdgeStyle;html=1;endArrow=block;elbow=vertical;startArrow=none;endFill=1;strokeColor=#FFFFFF;rounded=0;entryX=0;entryY=0.5;entryDx=0;entryDy=0;entryPerimeter=0;" edge="1" parent="1" source="hM_uBPPMbF6WadlX3Jyn-20" target="hM_uBPPMbF6WadlX3Jyn-11">
          <mxGeometry width="100" relative="1" as="geometry">
            <mxPoint x="760" y="360" as="sourcePoint" />
            <mxPoint x="760" y="390" as="targetPoint" />
          </mxGeometry>
        </mxCell>
      </root>
    </mxGraphModel>
  </diagram>
</mxfile>
